<?xml version="1.0" standalone="no"?>
<svg viewBox="0 0 200 200" xmlns="http://www.w3.org/2000/svg">
  <path fill="#8A3FFC" d="M42.3,-59.2C54.2,-58.1,62.8,-45.4,59.4,-32.9C56,-20.5,40.6,-8.5,37.9,4.9C35.2,18.3,45.1,33,45.4,47.5C45.6,62,36.1,76.2,24.2,77.3C12.4,78.4,-1.8,66.4,-10.2,54.8C-18.7,43.2,-21.4,32.1,-27.9,24.3C-34.3,16.6,-44.5,12.2,-50.5,4.2C-56.4,-3.9,-58.3,-15.7,-55.6,-27C-53,-38.4,-45.9,-49.3,-35.8,-51.3C-25.8,-53.2,-12.9,-46.1,1.1,-47.9C15.2,-49.7,30.4,-60.3,42.3,-59.2Z" transform="translate(100 100)" />
</svg>
