<?xml version="1.0" standalone="no"?>
<svg viewBox="0 0 200 200" xmlns="http://www.w3.org/2000/svg">
  <path fill="#24A148" d="M30.4,-54C36,-49.4,34.7,-34.4,44.8,-23.6C54.8,-12.9,76.3,-6.4,78,1C79.8,8.5,62,17,50.6,25.5C39.2,33.9,34.2,42.3,26.9,54.6C19.5,66.9,9.8,83.1,0.5,82.2C-8.8,81.3,-17.5,63.4,-25.9,51.7C-34.3,40,-42.3,34.5,-43.3,26.9C-44.4,19.3,-38.6,9.7,-43.9,-3.1C-49.3,-15.9,-65.9,-31.7,-68.3,-45.4C-70.8,-59.1,-59,-70.5,-45.3,-70.3C-31.5,-70.1,-15.8,-58.3,-1.7,-55.4C12.4,-52.5,24.8,-58.5,30.4,-54Z" transform="translate(100 100)" />
</svg>
