<?xml version="1.0" standalone="no"?>
<svg viewBox="0 0 200 200" xmlns="http://www.w3.org/2000/svg">
  <path fill="#FF0066" d="M19.6,-29.9C30.3,-27.8,47.3,-32.5,56.3,-28.6C65.2,-24.8,66,-12.4,60.6,-3.1C55.2,6.1,43.4,12.2,40.4,26.3C37.4,40.4,43.1,62.4,37.8,74.8C32.5,87.3,16.3,90.1,2.8,85.1C-10.6,80.2,-21.1,67.5,-32.3,58.5C-43.5,49.5,-55.3,44.1,-62,35C-68.7,25.8,-70.4,12.9,-64.9,3.1C-59.5,-6.6,-47,-13.2,-41.7,-24.9C-36.4,-36.5,-38.3,-53.2,-32.6,-58.2C-26.9,-63.2,-13.4,-56.6,-4.5,-48.8C4.5,-41,8.9,-32.1,19.6,-29.9Z" transform="translate(100 100)" />
</svg>
