<?xml version="1.0" standalone="no"?>
<svg viewBox="0 0 200 200" xmlns="http://www.w3.org/2000/svg">
  <path fill="#08BDBA" d="M31.5,-50.2C44.5,-47.1,61.2,-46,70.6,-38C79.9,-30,81.9,-15,83.1,0.7C84.3,16.4,84.6,32.7,77.4,44.3C70.1,55.9,55.1,62.8,41,64.5C26.8,66.1,13.4,62.7,-1.4,65.1C-16.2,67.5,-32.4,75.9,-45.3,73.5C-58.1,71,-67.6,57.8,-73.9,43.7C-80.2,29.7,-83.2,14.8,-80.2,1.7C-77.2,-11.4,-68.1,-22.7,-61.5,-36.3C-55,-49.8,-51,-65.6,-41.2,-70.5C-31.3,-75.4,-15.7,-69.4,-3.2,-63.9C9.3,-58.3,18.5,-53.2,31.5,-50.2Z" transform="translate(100 100)" />
</svg>
