<?xml version="1.0" standalone="no"?>
<svg viewBox="0 0 200 200" xmlns="http://www.w3.org/2000/svg">
  <path fill="#FA4D56" d="M39.3,-69.5C47.8,-63.2,49.4,-46.3,50,-33C50.7,-19.6,50.4,-9.8,50.6,0.1C50.8,10,51.5,20.1,51.1,34C50.8,47.8,49.4,65.5,40.7,70.9C32,76.2,16,69.1,3.6,62.8C-8.7,56.5,-17.5,51,-30.5,48.2C-43.5,45.3,-60.8,45.2,-66.8,37.6C-72.8,30,-67.5,15,-67.7,-0.1C-67.9,-15.2,-73.4,-30.4,-68.7,-40.2C-64,-50.1,-49.1,-54.6,-35.9,-58.2C-22.7,-61.8,-11.4,-64.5,2,-68C15.4,-71.6,30.8,-75.8,39.3,-69.5Z" transform="translate(100 100)" />
</svg>
