<?xml version="1.0" standalone="no"?>
<svg viewBox="0 0 200 200" xmlns="http://www.w3.org/2000/svg">
  <path fill="#0F62FE" d="M31.1,-51.6C41.8,-47.7,52.9,-42.4,62.2,-33.5C71.5,-24.6,78.9,-12.3,79.8,0.5C80.8,13.4,75.2,26.8,68.8,40.5C62.3,54.2,54.8,68.1,43.2,75C31.6,81.9,15.8,81.7,2.3,77.7C-11.2,73.7,-22.4,66,-31.3,57.6C-40.3,49.1,-46.9,40,-57.3,30.3C-67.7,20.6,-81.9,10.3,-80.1,1C-78.4,-8.3,-60.7,-16.5,-48.6,-23.5C-36.6,-30.4,-30.3,-36,-23.2,-41.9C-16,-47.8,-8,-53.9,1.1,-55.9C10.2,-57.8,20.4,-55.4,31.1,-51.6Z" transform="translate(100 100)" />
</svg>
