<?xml version="1.0" standalone="no"?>
<svg viewBox="0 0 200 200" xmlns="http://www.w3.org/2000/svg">
  <path fill="#F1C21B" d="M40.2,-65.1C51.6,-55.3,60,-43.3,58.3,-31.3C56.5,-19.3,44.7,-7.3,45,8.1C45.4,23.6,58.1,42.4,56.8,55.9C55.5,69.4,40.3,77.5,26.6,74.1C12.8,70.7,0.4,55.7,-10.8,47.5C-21.9,39.3,-31.9,37.8,-45.9,33.3C-59.9,28.8,-77.9,21.3,-76.7,12.6C-75.4,4,-54.8,-5.8,-45.8,-19.1C-36.9,-32.3,-39.6,-49,-33.9,-61.5C-28.2,-73.9,-14.1,-82.1,0.2,-82.3C14.4,-82.6,28.8,-74.9,40.2,-65.1Z" transform="translate(100 100)" />
</svg>
